<mxfile host="app.diagrams.net" modified="2021-12-30T18:42:47.160Z" agent="5.0 (Windows NT 10.0; Win64; x64) AppleWebKit/537.36 (KHTML, like Gecko) Chrome/96.0.4664.110 Safari/537.36 Edg/96.0.1054.62" etag="5VUDrbNIYu3bkj61PcU6" version="16.1.2" type="github">
  <diagram id="C5RBs43oDa-KdzZeNtuy" name="Page-1">
    <mxGraphModel dx="1460" dy="790" grid="1" gridSize="10" guides="1" tooltips="1" connect="1" arrows="1" fold="1" page="1" pageScale="1" pageWidth="827" pageHeight="1169" math="0" shadow="0">
      <root>
        <mxCell id="WIyWlLk6GJQsqaUBKTNV-0" />
        <mxCell id="WIyWlLk6GJQsqaUBKTNV-1" parent="WIyWlLk6GJQsqaUBKTNV-0" />
        <mxCell id="k_-u2dQbcrF-0tG2LLPN-20" value="" style="edgeStyle=orthogonalEdgeStyle;rounded=0;orthogonalLoop=1;jettySize=auto;html=1;" edge="1" parent="WIyWlLk6GJQsqaUBKTNV-1" source="k_-u2dQbcrF-0tG2LLPN-4" target="k_-u2dQbcrF-0tG2LLPN-9">
          <mxGeometry relative="1" as="geometry" />
        </mxCell>
        <mxCell id="k_-u2dQbcrF-0tG2LLPN-4" value="开始" style="rounded=1;whiteSpace=wrap;html=1;fontSize=12;glass=0;strokeWidth=1;shadow=0;" vertex="1" parent="WIyWlLk6GJQsqaUBKTNV-1">
          <mxGeometry x="400" y="100" width="120" height="50" as="geometry" />
        </mxCell>
        <mxCell id="k_-u2dQbcrF-0tG2LLPN-22" style="edgeStyle=orthogonalEdgeStyle;rounded=0;orthogonalLoop=1;jettySize=auto;html=1;exitX=0.5;exitY=1;exitDx=0;exitDy=0;entryX=0.5;entryY=0;entryDx=0;entryDy=0;" edge="1" parent="WIyWlLk6GJQsqaUBKTNV-1" source="k_-u2dQbcrF-0tG2LLPN-5" target="k_-u2dQbcrF-0tG2LLPN-6">
          <mxGeometry relative="1" as="geometry" />
        </mxCell>
        <mxCell id="k_-u2dQbcrF-0tG2LLPN-46" style="edgeStyle=orthogonalEdgeStyle;rounded=0;orthogonalLoop=1;jettySize=auto;html=1;exitX=0.5;exitY=1;exitDx=0;exitDy=0;entryX=0.438;entryY=-0.025;entryDx=0;entryDy=0;entryPerimeter=0;" edge="1" parent="WIyWlLk6GJQsqaUBKTNV-1" source="k_-u2dQbcrF-0tG2LLPN-5" target="k_-u2dQbcrF-0tG2LLPN-17">
          <mxGeometry relative="1" as="geometry">
            <Array as="points">
              <mxPoint x="233" y="300" />
            </Array>
          </mxGeometry>
        </mxCell>
        <mxCell id="k_-u2dQbcrF-0tG2LLPN-5" value="点阵倒计时3s" style="rhombus;whiteSpace=wrap;html=1;shadow=0;fontFamily=Helvetica;fontSize=12;align=center;strokeWidth=1;spacing=6;spacingTop=-4;" vertex="1" parent="WIyWlLk6GJQsqaUBKTNV-1">
          <mxGeometry x="400" y="250" width="120" height="50" as="geometry" />
        </mxCell>
        <mxCell id="k_-u2dQbcrF-0tG2LLPN-27" value="" style="edgeStyle=orthogonalEdgeStyle;rounded=0;orthogonalLoop=1;jettySize=auto;html=1;" edge="1" parent="WIyWlLk6GJQsqaUBKTNV-1" source="k_-u2dQbcrF-0tG2LLPN-6" target="k_-u2dQbcrF-0tG2LLPN-7">
          <mxGeometry relative="1" as="geometry" />
        </mxCell>
        <mxCell id="k_-u2dQbcrF-0tG2LLPN-6" value="初始出赛道，赛车，终点线，障碍物" style="rounded=1;whiteSpace=wrap;html=1;fontSize=12;glass=0;strokeWidth=1;shadow=0;" vertex="1" parent="WIyWlLk6GJQsqaUBKTNV-1">
          <mxGeometry x="400" y="330" width="120" height="40" as="geometry" />
        </mxCell>
        <mxCell id="k_-u2dQbcrF-0tG2LLPN-28" value="" style="edgeStyle=orthogonalEdgeStyle;rounded=0;orthogonalLoop=1;jettySize=auto;html=1;" edge="1" parent="WIyWlLk6GJQsqaUBKTNV-1" source="k_-u2dQbcrF-0tG2LLPN-7" target="k_-u2dQbcrF-0tG2LLPN-12">
          <mxGeometry relative="1" as="geometry" />
        </mxCell>
        <mxCell id="k_-u2dQbcrF-0tG2LLPN-7" value="方向按键输入" style="rounded=1;whiteSpace=wrap;html=1;fontSize=12;glass=0;strokeWidth=1;shadow=0;" vertex="1" parent="WIyWlLk6GJQsqaUBKTNV-1">
          <mxGeometry x="400" y="420" width="120" height="40" as="geometry" />
        </mxCell>
        <mxCell id="k_-u2dQbcrF-0tG2LLPN-32" style="edgeStyle=orthogonalEdgeStyle;rounded=0;orthogonalLoop=1;jettySize=auto;html=1;exitX=0.5;exitY=1;exitDx=0;exitDy=0;entryX=0.5;entryY=0;entryDx=0;entryDy=0;" edge="1" parent="WIyWlLk6GJQsqaUBKTNV-1" source="k_-u2dQbcrF-0tG2LLPN-8" target="k_-u2dQbcrF-0tG2LLPN-14">
          <mxGeometry relative="1" as="geometry" />
        </mxCell>
        <mxCell id="k_-u2dQbcrF-0tG2LLPN-8" value="到达终点" style="rounded=1;whiteSpace=wrap;html=1;fontSize=12;glass=0;strokeWidth=1;shadow=0;" vertex="1" parent="WIyWlLk6GJQsqaUBKTNV-1">
          <mxGeometry x="400" y="610" width="120" height="40" as="geometry" />
        </mxCell>
        <mxCell id="k_-u2dQbcrF-0tG2LLPN-21" style="edgeStyle=orthogonalEdgeStyle;rounded=0;orthogonalLoop=1;jettySize=auto;html=1;exitX=0.5;exitY=1;exitDx=0;exitDy=0;entryX=0.5;entryY=0;entryDx=0;entryDy=0;" edge="1" parent="WIyWlLk6GJQsqaUBKTNV-1" source="k_-u2dQbcrF-0tG2LLPN-9" target="k_-u2dQbcrF-0tG2LLPN-5">
          <mxGeometry relative="1" as="geometry" />
        </mxCell>
        <mxCell id="k_-u2dQbcrF-0tG2LLPN-47" style="edgeStyle=orthogonalEdgeStyle;rounded=0;orthogonalLoop=1;jettySize=auto;html=1;exitX=0.5;exitY=1;exitDx=0;exitDy=0;entryX=1;entryY=0.25;entryDx=0;entryDy=0;" edge="1" parent="WIyWlLk6GJQsqaUBKTNV-1" source="k_-u2dQbcrF-0tG2LLPN-9" target="k_-u2dQbcrF-0tG2LLPN-16">
          <mxGeometry relative="1" as="geometry" />
        </mxCell>
        <mxCell id="k_-u2dQbcrF-0tG2LLPN-9" value="等待拨码开关" style="rounded=1;whiteSpace=wrap;html=1;fontSize=12;glass=0;strokeWidth=1;shadow=0;" vertex="1" parent="WIyWlLk6GJQsqaUBKTNV-1">
          <mxGeometry x="400" y="180" width="120" height="40" as="geometry" />
        </mxCell>
        <mxCell id="k_-u2dQbcrF-0tG2LLPN-37" style="edgeStyle=orthogonalEdgeStyle;rounded=0;orthogonalLoop=1;jettySize=auto;html=1;exitX=0.5;exitY=1;exitDx=0;exitDy=0;" edge="1" parent="WIyWlLk6GJQsqaUBKTNV-1" source="k_-u2dQbcrF-0tG2LLPN-11" target="k_-u2dQbcrF-0tG2LLPN-15">
          <mxGeometry relative="1" as="geometry" />
        </mxCell>
        <mxCell id="k_-u2dQbcrF-0tG2LLPN-11" value="撞到赛道，障碍物或计时60s" style="rhombus;whiteSpace=wrap;html=1;shadow=0;fontFamily=Helvetica;fontSize=12;align=center;strokeWidth=1;spacing=6;spacingTop=-4;" vertex="1" parent="WIyWlLk6GJQsqaUBKTNV-1">
          <mxGeometry x="150" y="485" width="170" height="80" as="geometry" />
        </mxCell>
        <mxCell id="k_-u2dQbcrF-0tG2LLPN-31" style="edgeStyle=orthogonalEdgeStyle;rounded=0;orthogonalLoop=1;jettySize=auto;html=1;exitX=0.5;exitY=1;exitDx=0;exitDy=0;entryX=0.5;entryY=0;entryDx=0;entryDy=0;" edge="1" parent="WIyWlLk6GJQsqaUBKTNV-1" source="k_-u2dQbcrF-0tG2LLPN-12" target="k_-u2dQbcrF-0tG2LLPN-8">
          <mxGeometry relative="1" as="geometry" />
        </mxCell>
        <mxCell id="k_-u2dQbcrF-0tG2LLPN-36" style="edgeStyle=orthogonalEdgeStyle;rounded=0;orthogonalLoop=1;jettySize=auto;html=1;exitX=0.5;exitY=1;exitDx=0;exitDy=0;entryX=1;entryY=0.5;entryDx=0;entryDy=0;" edge="1" parent="WIyWlLk6GJQsqaUBKTNV-1" source="k_-u2dQbcrF-0tG2LLPN-12" target="k_-u2dQbcrF-0tG2LLPN-11">
          <mxGeometry relative="1" as="geometry" />
        </mxCell>
        <mxCell id="k_-u2dQbcrF-0tG2LLPN-12" value="移动赛车" style="rhombus;whiteSpace=wrap;html=1;shadow=0;fontFamily=Helvetica;fontSize=12;align=center;strokeWidth=1;spacing=6;spacingTop=-4;" vertex="1" parent="WIyWlLk6GJQsqaUBKTNV-1">
          <mxGeometry x="400" y="500" width="120" height="50" as="geometry" />
        </mxCell>
        <mxCell id="k_-u2dQbcrF-0tG2LLPN-51" style="edgeStyle=orthogonalEdgeStyle;rounded=0;orthogonalLoop=1;jettySize=auto;html=1;entryX=1;entryY=0.5;entryDx=0;entryDy=0;" edge="1" parent="WIyWlLk6GJQsqaUBKTNV-1" source="k_-u2dQbcrF-0tG2LLPN-13" target="k_-u2dQbcrF-0tG2LLPN-5">
          <mxGeometry relative="1" as="geometry">
            <mxPoint x="640" y="280" as="targetPoint" />
            <Array as="points">
              <mxPoint x="620" y="875" />
              <mxPoint x="620" y="275" />
            </Array>
          </mxGeometry>
        </mxCell>
        <mxCell id="k_-u2dQbcrF-0tG2LLPN-13" value="复位" style="rhombus;whiteSpace=wrap;html=1;shadow=0;fontFamily=Helvetica;fontSize=12;align=center;strokeWidth=1;spacing=6;spacingTop=-4;" vertex="1" parent="WIyWlLk6GJQsqaUBKTNV-1">
          <mxGeometry x="280" y="850" width="120" height="50" as="geometry" />
        </mxCell>
        <mxCell id="k_-u2dQbcrF-0tG2LLPN-39" style="edgeStyle=orthogonalEdgeStyle;rounded=0;orthogonalLoop=1;jettySize=auto;html=1;exitX=0.5;exitY=1;exitDx=0;exitDy=0;entryX=1;entryY=0.5;entryDx=0;entryDy=0;" edge="1" parent="WIyWlLk6GJQsqaUBKTNV-1" source="k_-u2dQbcrF-0tG2LLPN-14" target="k_-u2dQbcrF-0tG2LLPN-19">
          <mxGeometry relative="1" as="geometry" />
        </mxCell>
        <mxCell id="k_-u2dQbcrF-0tG2LLPN-14" value="笑脸" style="rounded=1;whiteSpace=wrap;html=1;fontSize=12;glass=0;strokeWidth=1;shadow=0;" vertex="1" parent="WIyWlLk6GJQsqaUBKTNV-1">
          <mxGeometry x="400" y="680" width="120" height="40" as="geometry" />
        </mxCell>
        <mxCell id="k_-u2dQbcrF-0tG2LLPN-38" style="edgeStyle=orthogonalEdgeStyle;rounded=0;orthogonalLoop=1;jettySize=auto;html=1;exitX=0.5;exitY=1;exitDx=0;exitDy=0;entryX=0;entryY=0.5;entryDx=0;entryDy=0;" edge="1" parent="WIyWlLk6GJQsqaUBKTNV-1" source="k_-u2dQbcrF-0tG2LLPN-15" target="k_-u2dQbcrF-0tG2LLPN-19">
          <mxGeometry relative="1" as="geometry" />
        </mxCell>
        <mxCell id="k_-u2dQbcrF-0tG2LLPN-15" value="哭脸" style="rounded=1;whiteSpace=wrap;html=1;fontSize=12;glass=0;strokeWidth=1;shadow=0;" vertex="1" parent="WIyWlLk6GJQsqaUBKTNV-1">
          <mxGeometry x="175" y="680" width="120" height="40" as="geometry" />
        </mxCell>
        <mxCell id="k_-u2dQbcrF-0tG2LLPN-48" style="edgeStyle=orthogonalEdgeStyle;rounded=0;orthogonalLoop=1;jettySize=auto;html=1;exitX=0.25;exitY=1;exitDx=0;exitDy=0;entryX=0.2;entryY=0.038;entryDx=0;entryDy=0;entryPerimeter=0;" edge="1" parent="WIyWlLk6GJQsqaUBKTNV-1" source="k_-u2dQbcrF-0tG2LLPN-16" target="k_-u2dQbcrF-0tG2LLPN-17">
          <mxGeometry relative="1" as="geometry" />
        </mxCell>
        <mxCell id="k_-u2dQbcrF-0tG2LLPN-16" value="计时器计时" style="rounded=1;whiteSpace=wrap;html=1;fontSize=12;glass=0;strokeWidth=1;shadow=0;" vertex="1" parent="WIyWlLk6GJQsqaUBKTNV-1">
          <mxGeometry x="175" y="230" width="120" height="40" as="geometry" />
        </mxCell>
        <mxCell id="k_-u2dQbcrF-0tG2LLPN-44" style="edgeStyle=orthogonalEdgeStyle;rounded=0;orthogonalLoop=1;jettySize=auto;html=1;exitX=0.5;exitY=1;exitDx=0;exitDy=0;" edge="1" parent="WIyWlLk6GJQsqaUBKTNV-1" source="k_-u2dQbcrF-0tG2LLPN-17">
          <mxGeometry relative="1" as="geometry">
            <mxPoint x="240" y="480" as="targetPoint" />
          </mxGeometry>
        </mxCell>
        <mxCell id="k_-u2dQbcrF-0tG2LLPN-17" value="数码管输出倒计时" style="rounded=1;whiteSpace=wrap;html=1;fontSize=12;glass=0;strokeWidth=1;shadow=0;" vertex="1" parent="WIyWlLk6GJQsqaUBKTNV-1">
          <mxGeometry x="180" y="340" width="120" height="40" as="geometry" />
        </mxCell>
        <mxCell id="k_-u2dQbcrF-0tG2LLPN-40" style="edgeStyle=orthogonalEdgeStyle;rounded=0;orthogonalLoop=1;jettySize=auto;html=1;exitX=0.5;exitY=1;exitDx=0;exitDy=0;" edge="1" parent="WIyWlLk6GJQsqaUBKTNV-1" source="k_-u2dQbcrF-0tG2LLPN-19" target="k_-u2dQbcrF-0tG2LLPN-13">
          <mxGeometry relative="1" as="geometry" />
        </mxCell>
        <mxCell id="k_-u2dQbcrF-0tG2LLPN-49" style="edgeStyle=orthogonalEdgeStyle;rounded=0;orthogonalLoop=1;jettySize=auto;html=1;exitX=0;exitY=1;exitDx=0;exitDy=0;entryX=0;entryY=0.5;entryDx=0;entryDy=0;" edge="1" parent="WIyWlLk6GJQsqaUBKTNV-1" source="k_-u2dQbcrF-0tG2LLPN-19" target="k_-u2dQbcrF-0tG2LLPN-16">
          <mxGeometry relative="1" as="geometry">
            <Array as="points">
              <mxPoint x="280" y="820" />
              <mxPoint x="100" y="820" />
              <mxPoint x="100" y="250" />
            </Array>
          </mxGeometry>
        </mxCell>
        <mxCell id="k_-u2dQbcrF-0tG2LLPN-19" value="结束" style="rounded=1;whiteSpace=wrap;html=1;fontSize=12;glass=0;strokeWidth=1;shadow=0;" vertex="1" parent="WIyWlLk6GJQsqaUBKTNV-1">
          <mxGeometry x="280" y="760" width="120" height="40" as="geometry" />
        </mxCell>
        <mxCell id="k_-u2dQbcrF-0tG2LLPN-25" value="Y" style="text;html=1;align=center;verticalAlign=middle;resizable=0;points=[];autosize=1;strokeColor=none;fillColor=none;" vertex="1" parent="WIyWlLk6GJQsqaUBKTNV-1">
          <mxGeometry x="480" y="230" width="20" height="20" as="geometry" />
        </mxCell>
        <mxCell id="k_-u2dQbcrF-0tG2LLPN-26" value="continue" style="text;html=1;align=center;verticalAlign=middle;resizable=0;points=[];autosize=1;strokeColor=none;fillColor=none;" vertex="1" parent="WIyWlLk6GJQsqaUBKTNV-1">
          <mxGeometry x="520" y="340" width="60" height="20" as="geometry" />
        </mxCell>
        <mxCell id="k_-u2dQbcrF-0tG2LLPN-41" value="fail" style="text;html=1;align=center;verticalAlign=middle;resizable=0;points=[];autosize=1;strokeColor=none;fillColor=none;" vertex="1" parent="WIyWlLk6GJQsqaUBKTNV-1">
          <mxGeometry x="265" y="620" width="30" height="20" as="geometry" />
        </mxCell>
        <mxCell id="k_-u2dQbcrF-0tG2LLPN-42" value="win" style="text;html=1;align=center;verticalAlign=middle;resizable=0;points=[];autosize=1;strokeColor=none;fillColor=none;" vertex="1" parent="WIyWlLk6GJQsqaUBKTNV-1">
          <mxGeometry x="535" y="650" width="30" height="20" as="geometry" />
        </mxCell>
        <mxCell id="k_-u2dQbcrF-0tG2LLPN-43" value="finish" style="text;html=1;align=center;verticalAlign=middle;resizable=0;points=[];autosize=1;strokeColor=none;fillColor=none;" vertex="1" parent="WIyWlLk6GJQsqaUBKTNV-1">
          <mxGeometry x="374" y="820" width="40" height="20" as="geometry" />
        </mxCell>
        <mxCell id="k_-u2dQbcrF-0tG2LLPN-50" value="停止变化" style="text;html=1;align=center;verticalAlign=middle;resizable=0;points=[];autosize=1;strokeColor=none;fillColor=none;" vertex="1" parent="WIyWlLk6GJQsqaUBKTNV-1">
          <mxGeometry x="100" y="575" width="60" height="20" as="geometry" />
        </mxCell>
        <mxCell id="k_-u2dQbcrF-0tG2LLPN-52" value="on" style="text;html=1;align=center;verticalAlign=middle;resizable=0;points=[];autosize=1;strokeColor=none;fillColor=none;" vertex="1" parent="WIyWlLk6GJQsqaUBKTNV-1">
          <mxGeometry x="520" y="230" width="30" height="20" as="geometry" />
        </mxCell>
        <mxCell id="k_-u2dQbcrF-0tG2LLPN-53" value="start" style="text;html=1;align=center;verticalAlign=middle;resizable=0;points=[];autosize=1;strokeColor=none;fillColor=none;" vertex="1" parent="WIyWlLk6GJQsqaUBKTNV-1">
          <mxGeometry x="344" y="265" width="40" height="20" as="geometry" />
        </mxCell>
      </root>
    </mxGraphModel>
  </diagram>
</mxfile>
